HIERARCHY
ROOT Hips
{
	OFFSET -0.001795 -0.223333 0.028219
	CHANNELS 6 Xposition Yposition Zposition Zrotation Yrotation Xrotation 
	JOINT LeftUpLeg
	{
		OFFSET 0.069520 -0.091406 -0.006815
		CHANNELS 3 Zrotation Yrotation Xrotation
		JOINT LeftLeg
		{
			OFFSET 0.034277 -0.375199 -0.004496
			CHANNELS 3 Zrotation Yrotation Xrotation
			JOINT LeftFoot
			{
				OFFSET -0.013596 -0.397961 -0.043693
				CHANNELS 3 Zrotation Yrotation Xrotation
				JOINT LeftToe
				{
					OFFSET 0.026358 -0.055791 0.119288
					CHANNELS 3 Zrotation Yrotation Xrotation
					End Site
					{
						OFFSET 0.000000 0.000000 0.000000
					}
				}
			}
		}
	}
	JOINT RightUpLeg
	{
		OFFSET -0.067670 -0.090522 -0.004320
		CHANNELS 3 Zrotation Yrotation Xrotation
		JOINT RightLeg
		{
			OFFSET -0.038290 -0.382569 -0.008850
			CHANNELS 3 Zrotation Yrotation Xrotation
			JOINT RightFoot
			{
				OFFSET 0.015774 -0.398415 -0.042312
				CHANNELS 3 Zrotation Yrotation Xrotation
				JOINT RightToe
				{
					OFFSET -0.025372 -0.048144 0.123348
					CHANNELS 3 Zrotation Yrotation Xrotation
					End Site
					{
						OFFSET 0.000000 0.000000 0.000000
					}
				}
			}
		}
	}
	JOINT Spine
	{
		OFFSET -0.002533 0.108963 -0.026696
		CHANNELS 3 Zrotation Yrotation Xrotation
		JOINT Spine1
		{
			OFFSET 0.005487 0.135180 0.001092
			CHANNELS 3 Zrotation Yrotation Xrotation
			JOINT Spine2
			{
				OFFSET 0.001457 0.052922 0.025425
				CHANNELS 3 Zrotation Yrotation Xrotation
				JOINT Neck
				{
					OFFSET -0.002778 0.213870 -0.042857
					CHANNELS 3 Zrotation Yrotation Xrotation
					JOINT Head
					{
						OFFSET 0.005152 0.064970 0.051349
						CHANNELS 3 Zrotation Yrotation Xrotation
						End Site
						{
							OFFSET 0.000000 0.000000 0.000000
						}
					}
				}
				JOINT LeftShoulder
				{
					OFFSET 0.078845 0.121749 -0.034090
					CHANNELS 3 Zrotation Yrotation Xrotation
					JOINT LeftArm
					{
						OFFSET 0.090977 0.030469 -0.008868
						CHANNELS 3 Zrotation Yrotation Xrotation
						JOINT LeftForeArm
						{
							OFFSET 0.259612 -0.012772 -0.027456
							CHANNELS 3 Zrotation Yrotation Xrotation
							JOINT LeftHand
							{
								OFFSET 0.249234 0.008986 -0.001171
								CHANNELS 3 Zrotation Yrotation Xrotation
								End Site
								{
									OFFSET 0.000000 0.000000 0.000000
								}
							}
						}
					}
				}
				JOINT RightShoulder
				{
					OFFSET -0.081759 0.118833 -0.038615
					CHANNELS 3 Zrotation Yrotation Xrotation
					JOINT RightArm
					{
						OFFSET -0.096012 0.032551 -0.009143
						CHANNELS 3 Zrotation Yrotation Xrotation
						JOINT RightForeArm
						{
							OFFSET -0.253742 -0.013329 -0.021401
							CHANNELS 3 Zrotation Yrotation Xrotation
							JOINT RightHand
							{
								OFFSET -0.255298 0.007772 -0.005559
								CHANNELS 3 Zrotation Yrotation Xrotation
								End Site
								{
									OFFSET 0.000000 0.000000 0.000000
								}
							}
						}
					}
				}
			}
		}
	}
}
MOTION
Frames: 13
Frame Time: 0.050000
0.000000 0.909978 0.000000 0.039635 -39.177279 -5.106391 -3.605490 -0.980967 -19.814232 -5.038352 4.063762 21.007238 28.721074 35.569540 33.813503 0.000000 0.000000 0.000000 -1.054747 0.823360 -8.251605 18.149916 5.273416 60.544403 -11.844484 -26.393687 14.933956 0.000000 0.000000 0.000000 3.429349 -0.388336 13.352612 -3.240749 0.521516 -27.678221 -0.183209 17.425589 29.848934 6.510929 -4.961534 -14.589214 0.000000 0.000000 0.000000 -20.694415 -3.586958 3.842698 -52.675827 -8.058508 -6.408723 -2.389721 -33.159851 3.300108 0.000000 0.000000 0.000000 25.685491 -0.477129 -5.044219 58.516708 -3.942727 -10.237657 11.980490 43.247564 6.046596 0.000000 0.000000 0.000000 
-0.017351 0.917303 0.025287 -1.838100 -36.298859 -4.781659 -4.072146 -1.257417 -16.224098 -2.705471 2.720359 20.248038 27.064173 35.256619 31.113779 0.000000 0.000000 0.000000 -0.530793 1.569776 -13.452027 21.238094 2.662221 62.002347 -11.432058 -26.172407 13.787245 0.000000 0.000000 0.000000 1.605266 -0.221956 13.948828 -1.888547 0.192341 -26.181723 -0.330443 15.872450 28.924084 4.947315 -3.605239 -14.776737 0.000000 0.000000 0.000000 -17.788423 -3.509274 3.242680 -52.771944 -7.044537 -6.544322 -8.683587 -39.211100 6.443735 0.000000 0.000000 0.000000 27.597389 0.187084 -4.785820 54.816763 -3.618693 -9.100831 11.186498 41.967043 5.514504 0.000000 0.000000 0.000000 
-0.032675 0.931635 0.045393 -2.964089 -29.857187 -3.981591 -2.797903 -1.142282 -13.243597 -3.913984 2.319734 18.171532 20.835804 30.252547 25.929379 0.000000 0.000000 0.000000 0.843415 2.278052 -17.051722 16.233407 2.385388 56.319083 -9.589291 -23.743348 14.047515 0.000000 0.000000 0.000000 1.819841 -0.350232 14.084769 -0.795877 0.139161 -26.317941 -1.662554 14.004325 29.441790 3.675637 -2.348299 -14.308356 0.000000 0.000000 0.000000 -17.945630 -4.426778 3.151825 -50.405809 -9.252134 -5.518163 -10.254044 -42.128462 7.362606 0.000000 0.000000 0.000000 27.265689 -0.182385 -3.864000 54.145344 -2.847405 -9.013595 9.976238 40.232127 5.198322 0.000000 0.000000 0.000000 
-0.046001 0.937821 0.061598 -4.797566 -26.596223 -1.902781 -0.759108 -0.890910 -13.542771 -4.802920 2.535561 19.200539 18.821679 29.156638 22.045763 0.000000 0.000000 0.000000 1.806048 2.664631 -18.648914 10.495553 3.007049 47.457244 -5.286753 -15.516746 7.191073 0.000000 0.000000 0.000000 2.804791 -0.539481 13.483503 0.251110 0.015930 -26.512985 -1.716907 13.049959 29.490405 2.236234 -1.248975 -11.318057 0.000000 0.000000 0.000000 -15.555013 -3.975098 2.469505 -54.156957 -10.070809 -5.142538 -8.972448 -44.271889 7.351363 0.000000 0.000000 0.000000 26.068755 -1.246177 -3.865240 55.852122 -3.529413 -9.753780 10.322700 40.779023 5.598592 0.000000 0.000000 0.000000 
-0.058885 0.943527 0.075937 -5.084635 -20.121474 -1.472524 -0.449411 -0.905751 -12.103096 -4.799173 2.049499 19.215402 13.856062 24.655397 14.539624 0.000000 0.000000 0.000000 0.638975 2.544386 -19.294778 5.309881 2.747027 39.292180 -2.207843 -8.817735 6.005968 0.000000 0.000000 0.000000 1.872267 -0.527611 13.779580 1.652776 -0.064404 -27.071332 -1.525641 11.390102 30.026351 1.685366 -0.448938 -12.346050 0.000000 0.000000 0.000000 -14.846345 -4.185869 1.998564 -56.873693 -10.456430 -5.014133 -9.053253 -45.686807 7.454808 0.000000 0.000000 0.000000 26.592864 -1.192234 -2.941772 54.238019 -3.404069 -9.599754 9.215974 40.302318 5.406150 0.000000 0.000000 0.000000 
-0.070111 0.944633 0.089258 -4.581080 -12.038738 -1.585994 -0.685603 -0.948834 -10.771742 -4.502306 1.335128 18.610528 9.536762 19.069296 9.371105 0.000000 0.000000 0.000000 -1.201149 2.155186 -19.497500 3.296710 1.803108 35.179582 -1.782175 -9.128196 10.234021 0.000000 0.000000 0.000000 1.413752 -0.600948 14.172627 1.823958 0.029228 -26.949248 -1.964067 10.653331 29.593652 2.421406 -0.261192 -14.044127 0.000000 0.000000 0.000000 -16.264185 -4.045913 0.868503 -56.715542 -11.252913 -4.546843 -10.455158 -45.080416 7.221780 0.000000 0.000000 0.000000 26.435281 -3.446728 -2.689447 55.517670 -4.634144 -10.604740 9.932522 40.310394 6.257927 0.000000 0.000000 0.000000 
-0.080920 0.943687 0.101416 -3.872055 -4.432348 -1.727474 -0.747225 -0.888483 -9.375910 -4.825532 0.901811 16.971218 6.912866 14.952669 6.683180 0.000000 0.000000 0.000000 -1.755609 1.799066 -18.968725 4.289428 0.301521 36.364227 -4.456038 -13.970456 13.170009 0.000000 0.000000 0.000000 1.312815 -0.755268 15.360990 1.088739 0.361517 -27.541121 -1.968138 9.412589 29.435079 2.435536 0.229385 -14.116260 0.000000 0.000000 0.000000 -18.555825 -4.668819 0.058157 -55.157869 -9.816024 -4.934361 -10.472642 -43.643015 6.311892 0.000000 0.000000 0.000000 26.408338 -4.203572 -1.846159 56.891543 -3.241867 -10.413203 8.015443 39.521912 5.910340 0.000000 0.000000 0.000000 
-0.090808 0.942048 0.111684 -3.006975 1.054977 -2.116825 -0.902880 -0.820240 -8.377400 -4.655660 0.565807 16.308832 4.546489 10.845715 5.696027 0.000000 0.000000 0.000000 -2.553152 1.567114 -19.803815 4.765219 -0.868765 40.453572 -6.349290 -16.803423 14.354815 0.000000 0.000000 0.000000 0.822315 -0.796112 15.571077 0.537214 0.553226 -26.343367 -2.177444 9.483656 28.878115 1.773134 1.244830 -14.191929 0.000000 0.000000 0.000000 -19.145522 -4.280558 -1.296519 -54.180965 -8.255610 -5.189771 -11.191088 -41.585241 5.611262 0.000000 0.000000 0.000000 26.393700 -3.649646 -0.270143 57.206959 -0.310249 -9.217729 6.055482 35.724849 4.813066 0.000000 0.000000 0.000000 
-0.099674 0.942190 0.120805 -2.899011 5.902956 -2.323250 -1.054582 -0.774213 -7.832197 -3.169680 -0.010922 15.954750 2.585019 7.459642 5.409939 0.000000 0.000000 0.000000 -2.782216 1.339926 -19.833723 4.143159 -1.692840 43.094468 -6.104841 -15.894653 14.386130 0.000000 0.000000 0.000000 0.718371 -0.917318 16.196192 0.389982 0.693918 -26.478462 -1.908570 9.248277 28.262333 1.312368 1.912484 -13.816597 0.000000 0.000000 0.000000 -20.287964 -4.731647 -2.180269 -53.898892 -6.468713 -5.538824 -8.488595 -38.567776 3.802479 0.000000 0.000000 0.000000 26.216011 -2.776028 1.240508 57.158787 1.121033 -8.600380 4.958089 32.984685 4.096676 0.000000 0.000000 0.000000 
-0.107956 0.943090 0.129425 -2.670978 11.312640 -1.206439 -0.477249 -0.888116 -9.182387 -3.061372 -0.278277 16.464926 0.191052 3.254534 5.122007 0.000000 0.000000 0.000000 -2.915250 1.134263 -21.373191 2.534679 -2.065272 43.036921 -4.354842 -11.979499 11.597809 0.000000 0.000000 0.000000 0.910999 -0.977454 15.218926 -0.011775 0.892640 -26.094454 -1.665982 7.956117 27.332536 -0.915123 3.891422 -14.917557 0.000000 0.000000 0.000000 -20.708994 -4.409643 -3.226856 -54.718244 -3.463685 -6.631714 -6.180214 -36.683381 2.539486 0.000000 0.000000 0.000000 25.413642 -2.525507 2.036102 58.468014 1.597501 -8.310288 3.866043 32.043058 3.722516 0.000000 0.000000 0.000000 
-0.115849 0.945912 0.137808 -2.757068 16.758324 -0.890932 -0.260574 -0.932949 -9.641114 -1.817676 -0.782446 16.660797 -2.133042 -0.612586 5.359737 0.000000 0.000000 0.000000 -2.704068 0.887230 -21.173093 0.356296 -1.794922 39.791637 -3.084806 -8.427513 6.634328 0.000000 0.000000 0.000000 1.079992 -1.067242 14.876914 -0.424179 1.093408 -25.855647 -1.199753 7.058705 27.117913 -2.345739 5.155183 -14.543363 0.000000 0.000000 0.000000 -20.618630 -3.919205 -4.376180 -54.740521 -2.100091 -6.989639 -4.512048 -33.582132 1.525099 0.000000 0.000000 0.000000 24.764736 -2.778245 2.683166 59.270899 2.884035 -7.707519 1.457928 30.951940 3.066027 0.000000 0.000000 0.000000 
-0.123768 0.946820 0.146769 -2.265481 23.214362 -0.623065 0.206346 -0.936751 -9.784187 -1.040695 -1.026327 15.346639 -6.890179 -6.971959 8.136772 0.000000 0.000000 0.000000 -2.211605 0.661261 -19.358537 -4.118858 -0.212365 33.864866 -0.772570 -2.588572 4.251543 0.000000 0.000000 0.000000 0.519712 -1.072575 14.689113 0.109949 1.132799 -25.065449 -1.152055 6.176511 26.449983 -2.528389 5.652696 -14.854940 0.000000 0.000000 0.000000 -20.964166 -3.774160 -5.720620 -53.418044 -0.398560 -7.051885 -3.838278 -30.734921 0.889376 0.000000 0.000000 0.000000 24.188076 -3.596424 3.062193 58.691053 4.041868 -7.040690 0.273003 30.312907 2.793571 0.000000 0.000000 0.000000 
-0.132186 0.945245 0.156128 -2.326733 31.356419 -1.249582 0.752555 -0.966153 -10.090473 0.460271 -1.452709 14.849882 -12.871006 -14.100117 11.791797 0.000000 0.000000 0.000000 -2.423803 0.289807 -16.824917 -4.986228 -0.436077 28.824329 -0.930574 -2.587849 6.450940 0.000000 0.000000 0.000000 0.522232 -1.260438 15.187155 0.001636 1.352285 -25.240218 -1.093744 4.570975 26.586091 -1.374177 5.046093 -13.182925 0.000000 0.000000 0.000000 -21.765716 -4.137315 -7.115776 -51.171981 1.486935 -6.942881 -4.446807 -30.476468 0.705558 0.000000 0.000000 0.000000 25.238498 -4.326344 3.997392 56.944846 4.105880 -7.356719 -0.224366 30.116778 2.726846 0.000000 0.000000 0.000000 
